<svg xmlns="http://www.w3.org/2000/svg" viewBox="0 0 1080 1080"><defs><pattern id="gr" width="16" height="16" patternUnits="userSpaceOnUse"><circle cx="3" cy="4" r="1.15" fill="#23201D" fill-opacity=".055"/><circle cx="11" cy="12" r="1.1" fill="#23201D" fill-opacity=".045"/></pattern><pattern id="ha" width="11" height="11" patternUnits="userSpaceOnUse" patternTransform="rotate(38)"><line x1="0" y1="0" x2="0" y2="11" stroke="#FBF6EF" stroke-opacity=".14" stroke-width="2.4"/></pattern></defs><rect x="0" y="0" width="1080" height="1080" fill="#F2E9DC"/><g transform="translate(-28.1,-265) scale(1.3)"><rect x="0" y="0" width="1080" height="540" fill="#FBF6EF"/><g fill="#3E5C76"><rect x="0" y="0" width="1080" height="540" fill-opacity=".2"/><rect x="0" y="0" width="1080" height="380" fill-opacity=".1"/><rect x="0" y="0" width="1080" height="250" fill-opacity=".09"/><rect x="0" y="0" width="1080" height="130" fill-opacity=".09"/><rect x="0" y="0" width="1080" height="54" fill-opacity=".08"/></g><circle cx="1000" cy="318" r="48" fill="#F0B429"/><circle cx="1000" cy="318" r="48" fill="#FBF6EF" fill-opacity=".16"/><g stroke="#F0B429" stroke-width="5" stroke-linecap="round" stroke-opacity=".7"><line x1="967.7" y1="266.3" x2="951.8" y2="240.8"/><line x1="992.6" y1="257.5" x2="990.3" y2="238.6"/><line x1="1018.9" y1="260" x2="1028.1" y2="231.5"/><line x1="1041.6" y1="273.4" x2="1054.6" y2="259.5"/><line x1="1056.6" y1="295.1" x2="1084.4" y2="283.9"/><line x1="1060.9" y1="321.2" x2="1079.9" y2="322.2"/><line x1="1053.9" y1="346.6" x2="1080.3" y2="360.7"/></g><g fill="#FBF6EF" fill-opacity=".55"><path d="M84 122q24-30 68-22q32-32 80-6q44-4 48 28z"/><path d="M612 74q20-24 55-17q26-26 65-5q35-3 38 22z"/><path d="M264 196q16-19 44-14q21-20 52-4q28-2 30 18z" fill-opacity=".35"/></g><g fill="#3E5C76" fill-opacity=".26"><circle cx="470" cy="66" r="2.6"/><circle cx="538" cy="66" r="2.6"/><circle cx="606" cy="66" r="2.6"/><circle cx="674" cy="66" r="2.6"/><circle cx="742" cy="66" r="2.6"/><circle cx="810" cy="66" r="2.6"/><circle cx="878" cy="66" r="2.6"/><circle cx="946" cy="66" r="2.6"/><circle cx="1014" cy="66" r="2.6"/><circle cx="504" cy="112" r="2.4"/><circle cx="572" cy="112" r="2.4"/><circle cx="640" cy="112" r="2.4"/><circle cx="708" cy="112" r="2.4"/><circle cx="776" cy="112" r="2.4"/><circle cx="844" cy="112" r="2.4"/><circle cx="912" cy="112" r="2.4"/><circle cx="980" cy="112" r="2.4"/><circle cx="1048" cy="112" r="2.4"/><circle cx="470" cy="158" r="2.1"/><circle cx="538" cy="158" r="2.1"/><circle cx="606" cy="158" r="2.1"/><circle cx="674" cy="158" r="2.1"/><circle cx="742" cy="158" r="2.1"/><circle cx="810" cy="158" r="2.1"/><circle cx="878" cy="158" r="2.1"/><circle cx="946" cy="158" r="2.1"/><circle cx="1014" cy="158" r="2.1"/><circle cx="504" cy="204" r="1.9"/><circle cx="572" cy="204" r="1.9"/><circle cx="640" cy="204" r="1.9"/><circle cx="708" cy="204" r="1.9"/><circle cx="776" cy="204" r="1.9"/><circle cx="844" cy="204" r="1.9"/><circle cx="912" cy="204" r="1.9"/><circle cx="980" cy="204" r="1.9"/><circle cx="1048" cy="204" r="1.9"/><circle cx="470" cy="250" r="1.6"/><circle cx="538" cy="250" r="1.6"/><circle cx="606" cy="250" r="1.6"/><circle cx="674" cy="250" r="1.6"/><circle cx="742" cy="250" r="1.6"/><circle cx="810" cy="250" r="1.6"/><circle cx="878" cy="250" r="1.6"/></g><g fill="none" stroke="#23201D" stroke-linecap="round"><path d="M372 118q9 -9 19 -1q9 8 19 1" stroke-width="3.4"/><path d="M446 88q6.5 -6.5 13.7 -0.7q6.5 5.8 13.7 0.7" stroke-width="2.4"/><path d="M426 158q5.2 -5.2 11 -0.6q5.2 4.6 11 0.6" stroke-width="2"/></g><polygon points="950,452 1032,452 1032,900 950,900" fill="#3E5C76" fill-opacity=".32"/><polygon points="1032,396 1080,396 1080,900 1032,900" fill="#3E5C76" fill-opacity=".44"/><polygon points="950,452 1032,452 1032,471 950,471" fill="#3E5C76" fill-opacity=".5"/><polygon points="1032,396 1080,396 1080,413 1032,413" fill="#3E5C76" fill-opacity=".52"/><g fill="#FBF6EF"><rect x="966" y="502" width="20" height="30" fill-opacity=".45"/><rect x="1000" y="502" width="20" height="30" fill-opacity=".8"/><rect x="966" y="564" width="20" height="30" fill-opacity=".8"/><rect x="1000" y="564" width="20" height="30" fill-opacity=".8"/><rect x="966" y="626" width="20" height="30" fill-opacity=".8"/><rect x="1000" y="626" width="20" height="30" fill-opacity=".45"/><rect x="966" y="688" width="20" height="30" fill-opacity=".45"/><rect x="1000" y="688" width="20" height="30" fill-opacity=".8"/><rect x="966" y="750" width="20" height="30" fill-opacity=".8"/><rect x="1000" y="750" width="20" height="30" fill-opacity=".8"/><rect x="1046" y="446" width="18" height="28" fill-opacity=".4"/><rect x="1046" y="512" width="18" height="28" fill-opacity=".4"/><rect x="1046" y="578" width="18" height="28" fill-opacity=".4"/><rect x="1046" y="644" width="18" height="28" fill-opacity=".4"/></g><line x1="1057" y1="152" x2="1057" y2="884" stroke="#23201D" stroke-width="7" stroke-opacity=".82" stroke-linecap="butt"/><line x1="1024" y1="188" x2="1080" y2="181" stroke="#23201D" stroke-width="5" stroke-opacity=".8"/><line x1="1030" y1="216" x2="1080" y2="210" stroke="#23201D" stroke-width="4" stroke-opacity=".7"/><g fill="none" stroke="#23201D"><path d="M470 176 Q772 236 1053 192" stroke-width="2.6"/><path d="M470 212 Q774 272 1053 219" stroke-width="2.2" stroke-opacity=".72"/></g><polygon points="0,1000 950,932.9 1080,900 1080,1080 0,1080" fill="#F2E9DC"/><polygon points="0,1000 950,932.9 1080,900 1080,1080 0,1080" fill="#FBF6EF" fill-opacity=".32"/><g stroke="#3E5C76"><line x1="0" y1="1014" x2="1080" y2="933.3" stroke-width="2" stroke-opacity=".2"/><line x1="0" y1="1044" x2="1080" y2="953.8" stroke-width="2" stroke-opacity=".2"/><line x1="0" y1="1076" x2="1080" y2="975.6" stroke-width="2" stroke-opacity=".2"/><line x1="-30" y1="1080" x2="260" y2="1052.9" stroke-width="1.8" stroke-opacity=".14"/><line x1="120" y1="1080" x2="410" y2="1051.7" stroke-width="1.8" stroke-opacity=".14"/><line x1="270" y1="1080" x2="560" y2="1050.4" stroke-width="1.8" stroke-opacity=".14"/><line x1="420" y1="1080" x2="710" y2="1048.9" stroke-width="1.8" stroke-opacity=".14"/><line x1="570" y1="1080" x2="860" y2="1047.2" stroke-width="1.8" stroke-opacity=".14"/><line x1="720" y1="1080" x2="1010" y2="1045.4" stroke-width="1.8" stroke-opacity=".14"/><line x1="870" y1="1080" x2="1078" y2="1053.7" stroke-width="1.8" stroke-opacity=".14"/><line x1="1020" y1="1080" x2="1078" y2="1072.2" stroke-width="1.8" stroke-opacity=".14"/></g><polygon points="1080,900 1080,962 742,1080 548,1080" fill="#3E5C76" fill-opacity=".46"/><polygon points="1080,900 1080,916 604,1080 548,1080" fill="#FBF6EF" fill-opacity=".6"/><g stroke="#FBF6EF" stroke-opacity=".5" stroke-linecap="butt"><line x1="1080" y1="986" x2="1016" y2="1010" stroke-width="7"/><line x1="972" y1="1026" x2="890" y2="1056" stroke-width="8"/></g><polygon points="0,140 950,312.9 950,932.9 0,1000" fill="#FBF6EF"/><polygon points="566,314.7 950,374.9 950,641.5 772,633" fill="#F0B429" fill-opacity=".11"/><g stroke="#3E5C76" stroke-opacity=".12" stroke-width="1.6"><line x1="0" y1="173.1" x2="950" y2="336.7"/><line x1="0" y1="206.2" x2="950" y2="360.6"/><line x1="0" y1="239.2" x2="950" y2="384.4"/><line x1="0" y1="272.3" x2="950" y2="408.3"/><line x1="0" y1="305.4" x2="950" y2="432.1"/><line x1="0" y1="338.5" x2="950" y2="456"/><line x1="0" y1="371.5" x2="950" y2="479.8"/><line x1="0" y1="404.6" x2="950" y2="503.7"/><line x1="0" y1="437.7" x2="950" y2="527.5"/><line x1="0" y1="470.8" x2="950" y2="551.4"/><line x1="0" y1="503.8" x2="950" y2="575.2"/><line x1="0" y1="536.9" x2="950" y2="599.1"/><line x1="0" y1="570" x2="950" y2="622.9"/><line x1="0" y1="603.1" x2="950" y2="646.8"/><line x1="0" y1="636.2" x2="950" y2="670.6"/><line x1="0" y1="669.2" x2="950" y2="694.5"/><line x1="0" y1="702.3" x2="950" y2="718.3"/><line x1="0" y1="735.4" x2="950" y2="742.2"/><line x1="0" y1="768.5" x2="950" y2="766"/><line x1="0" y1="801.5" x2="950" y2="789.8"/><line x1="0" y1="834.6" x2="950" y2="813.7"/><line x1="0" y1="867.7" x2="950" y2="837.5"/><line x1="0" y1="900.8" x2="950" y2="861.4"/><line x1="0" y1="933.8" x2="950" y2="885.2"/><line x1="0" y1="966.9" x2="950" y2="909.1"/></g><g stroke="#3E5C76" stroke-opacity=".1" stroke-width="1.5"><line x1="104" y1="223.1" x2="104" y2="255.1"/><line x1="244" y1="245.8" x2="244" y2="276.5"/><line x1="384" y1="268.6" x2="384" y2="297.9"/><line x1="524" y1="291.3" x2="524" y2="319.3"/><line x1="664" y1="314.1" x2="664" y2="340.7"/><line x1="804" y1="336.9" x2="804" y2="362.1"/><line x1="34" y1="309.9" x2="34" y2="342.7"/><line x1="174" y1="328.6" x2="174" y2="360"/><line x1="314" y1="347.3" x2="314" y2="377.3"/><line x1="454" y1="366" x2="454" y2="394.6"/><line x1="594" y1="384.6" x2="594" y2="411.9"/><line x1="734" y1="403.3" x2="734" y2="429.3"/><line x1="874" y1="422" x2="874" y2="446.6"/><line x1="104" y1="415.5" x2="104" y2="447.5"/><line x1="244" y1="430.1" x2="244" y2="460.8"/><line x1="384" y1="444.7" x2="384" y2="474"/><line x1="524" y1="459.3" x2="524" y2="487.2"/><line x1="664" y1="473.9" x2="664" y2="500.5"/><line x1="804" y1="488.5" x2="804" y2="513.7"/><line x1="34" y1="506.4" x2="34" y2="539.1"/><line x1="174" y1="516.9" x2="174" y2="548.3"/><line x1="314" y1="527.4" x2="314" y2="557.5"/><line x1="454" y1="538" x2="454" y2="566.6"/><line x1="594" y1="548.5" x2="594" y2="575.8"/><line x1="734" y1="559" x2="734" y2="584.9"/><line x1="874" y1="569.5" x2="874" y2="594.1"/><line x1="104" y1="607.9" x2="104" y2="639.9"/><line x1="244" y1="614.3" x2="244" y2="645"/><line x1="384" y1="620.7" x2="384" y2="650.1"/><line x1="524" y1="627.2" x2="524" y2="655.2"/><line x1="664" y1="633.6" x2="664" y2="660.2"/><line x1="804" y1="640" x2="804" y2="665.3"/><line x1="34" y1="702.9" x2="34" y2="735.6"/><line x1="174" y1="705.2" x2="174" y2="736.6"/><line x1="314" y1="707.6" x2="314" y2="737.6"/><line x1="454" y1="710" x2="454" y2="738.6"/><line x1="594" y1="712.3" x2="594" y2="739.6"/><line x1="734" y1="714.7" x2="734" y2="740.6"/><line x1="874" y1="717" x2="874" y2="741.6"/><line x1="104" y1="800.3" x2="104" y2="832.3"/><line x1="244" y1="798.5" x2="244" y2="829.2"/><line x1="384" y1="796.8" x2="384" y2="826.2"/><line x1="524" y1="795.1" x2="524" y2="823.1"/><line x1="664" y1="793.4" x2="664" y2="820"/><line x1="804" y1="791.6" x2="804" y2="816.9"/><line x1="34" y1="899.4" x2="34" y2="932.1"/><line x1="174" y1="893.6" x2="174" y2="924.9"/><line x1="314" y1="887.8" x2="314" y2="917.8"/><line x1="454" y1="881.9" x2="454" y2="910.6"/><line x1="594" y1="876.1" x2="594" y2="903.5"/><line x1="734" y1="870.3" x2="734" y2="896.3"/><line x1="874" y1="864.5" x2="874" y2="889.1"/></g><g fill="#3E5C76" fill-opacity=".09"><circle cx="20" cy="237.7" r="2.2"/><circle cx="291" cy="575.8" r="3"/><circle cx="562" cy="862.4" r="3.8"/><circle cx="833" cy="545.2" r="2.2"/><circle cx="184" cy="797.6" r="3"/><circle cx="455" cy="441.9" r="3.8"/><circle cx="726" cy="726" r="2.2"/><circle cx="77" cy="320.1" r="3"/><circle cx="348" cy="646.9" r="3.8"/><circle cx="619" cy="922" r="2.2"/><circle cx="890" cy="605.6" r="3"/><circle cx="241" cy="867" r="3.8"/><circle cx="512" cy="512" r="2.2"/><circle cx="783" cy="784.8" r="3"/><circle cx="134" cy="400.1" r="3.8"/><circle cx="405" cy="715.4" r="2.2"/><circle cx="676" cy="393.2" r="3"/><circle cx="27" cy="627.5" r="3.8"/><circle cx="298" cy="933.8" r="2.2"/><circle cx="569" cy="579.7" r="3"/><circle cx="840" cy="841" r="3.8"/><circle cx="191" cy="477.5" r="2.2"/></g><polygon points="0,204.5 48,212.3 48,996.6 0,1000" fill="#3E5C76" fill-opacity=".12"/><line x1="48" y1="212.3" x2="48" y2="996.6" stroke="#3E5C76" stroke-width="2.4" stroke-opacity=".3"/><line x1="950" y1="312.9" x2="950" y2="932.9" stroke="#23201D" stroke-width="3.4"/><polygon points="-6,138.9 960,314.7 960,332 -6,163" fill="#23201D"/><polygon points="-6,163 956,331.3 956,368.4 -6,214.7" fill="#3E5C76"/><polygon points="-6,163 956,331.3 956,339.4 -6,174.2" fill="#FBF6EF" fill-opacity=".26"/><g fill="#FBF6EF" fill-opacity=".72"><polygon points="8,190.4 28.9,193.9 28.9,212.6 8,209.2"/><polygon points="48.9,197.2 69.6,200.7 69.6,219.2 48.9,215.9"/><polygon points="89.3,204 109.7,207.4 109.7,225.7 89.3,222.4"/><polygon points="129.1,210.7 149.3,214 149.3,232.1 129.1,228.9"/><polygon points="168.4,217.3 188.3,220.6 188.3,238.5 168.4,235.2"/><polygon points="207.3,223.8 226.9,227 226.9,244.7 207.3,241.5"/><polygon points="245.6,230.2 264.9,233.4 264.9,250.9 245.6,247.7"/><polygon points="283.4,236.5 302.5,239.7 302.5,257 283.4,253.9"/><polygon points="320.7,242.8 339.6,245.9 339.6,263 320.7,259.9"/><polygon points="357.6,248.9 376.2,252.1 376.2,268.9 357.6,265.9"/><polygon points="393.9,255 412.3,258.1 412.3,274.8 393.9,271.8"/><polygon points="429.8,261.1 448,264.1 448,280.5 429.8,277.6"/><polygon points="465.3,267 483.2,270 483.2,286.2 465.3,283.3"/><polygon points="500.3,272.9 517.9,275.8 517.9,291.9 500.3,289"/><polygon points="534.8,278.6 552.2,281.6 552.2,297.4 534.8,294.6"/><polygon points="568.9,284.4 586.1,287.2 586.1,302.9 568.9,300.1"/><polygon points="602.5,290 619.5,292.8 619.5,308.3 602.5,305.6"/><polygon points="635.7,295.6 652.5,298.4 652.5,313.7 635.7,310.9"/><polygon points="668.5,301.1 685,303.8 685,318.9 668.5,316.3"/><polygon points="700.8,306.5 717.2,309.2 717.2,324.2 700.8,321.5"/><polygon points="732.7,311.8 748.9,314.5 748.9,329.3 732.7,326.7"/><polygon points="764.2,317.1 780.2,319.8 780.2,334.4 764.2,331.8"/><polygon points="795.3,322.3 811.1,325 811.1,339.4 795.3,336.8"/><polygon points="826,327.5 841.6,330.1 841.6,344.3 826,341.8"/><polygon points="856.4,332.5 871.7,335.1 871.7,349.2 856.4,346.7"/><polygon points="886.3,337.6 901.4,340.1 901.4,354 886.3,351.6"/><polygon points="915.8,342.5 930.7,345 930.7,358.8 915.8,356.3"/></g><polygon points="-6,214.7 956,368.4 956,375.2 -6,224.2" fill="#23201D" fill-opacity=".82"/><polygon points="-6,289.7 956,422.2 956,434 -6,306" fill="#3E5C76" fill-opacity=".5"/><line x1="932" y1="372.1" x2="932" y2="934.2" stroke="#23201D" stroke-width="9" stroke-opacity=".85" stroke-linecap="butt"/><line x1="927" y1="371.3" x2="927" y2="934.6" stroke="#FBF6EF" stroke-width="2" stroke-opacity=".28" stroke-linecap="butt"/><g stroke="#23201D" stroke-width="5" stroke-opacity=".85" stroke-linecap="round"><line x1="919" y1="445.4" x2="945" y2="448.7"/><line x1="919" y1="621.2" x2="945" y2="622.6"/><line x1="919" y1="797" x2="945" y2="796.6"/><line x1="919" y1="910" x2="945" y2="908.4"/></g><polygon points="536.8,599.9 897.8,620 897.8,673.8 536.8,661.5" fill="#3E5C76" fill-opacity=".11"/><polygon points="536.8,599.9 589.9,602.9 541.9,707 486,706" fill="#E4753A"/><path d="M486,706 L541.9,707 L541.9,752.2 Q514 778.1 486,752 Z" fill="#E4753A"/><polygon points="589.9,602.9 638.8,605.6 593.5,708 541.9,707" fill="#FBF6EF"/><path d="M541.9,707 L593.5,708 L593.5,752.3 Q567.7 778.2 541.9,752.2 Z" fill="#FBF6EF"/><polygon points="638.8,605.6 684.1,608.1 641.1,708.9 593.5,708" fill="#E4753A"/><path d="M593.5,708 L641.1,708.9 L641.1,752.4 Q617.3 778.4 593.5,752.3 Z" fill="#E4753A"/><polygon points="684.1,608.1 726.2,610.4 685.4,709.7 641.1,708.9" fill="#FBF6EF"/><path d="M641.1,708.9 L685.4,709.7 L685.4,752.5 Q663.3 778.5 641.1,752.4 Z" fill="#FBF6EF"/><polygon points="726.2,610.4 765.3,612.6 726.6,710.5 685.4,709.7" fill="#E4753A"/><path d="M685.4,709.7 L726.6,710.5 L726.6,752.7 Q706 778.6 685.4,752.5 Z" fill="#E4753A"/><polygon points="765.3,612.6 801.7,614.7 764.9,711.2 726.6,710.5" fill="#FBF6EF"/><path d="M726.6,710.5 L764.9,711.2 L764.9,752.8 Q745.7 778.7 726.6,752.7 Z" fill="#FBF6EF"/><polygon points="801.7,614.7 835.8,616.6 800.8,711.8 764.9,711.2" fill="#E4753A"/><path d="M764.9,711.2 L800.8,711.8 L800.8,752.9 Q782.9 778.8 764.9,752.8 Z" fill="#E4753A"/><polygon points="835.8,616.6 867.8,618.3 834.4,712.5 800.8,711.8" fill="#FBF6EF"/><path d="M800.8,711.8 L834.4,712.5 L834.4,753 Q817.6 778.9 800.8,752.9 Z" fill="#FBF6EF"/><polygon points="867.8,618.3 897.8,620 866,713 834.4,712.5" fill="#E4753A"/><path d="M834.4,712.5 L866,713 L866,753 Q850.2 779 834.4,753 Z" fill="#E4753A"/><polygon points="790,614 897.8,620 866,713 752.6,710.9" fill="#3E5C76" fill-opacity=".13"/><path d="M536.8,599.9 L897.8,620 L866,713 L486,706 Z" fill="none" stroke="#23201D" stroke-width="3" stroke-linecap="round" stroke-linejoin="round"/><line x1="536.8" y1="599.9" x2="897.8" y2="620" stroke="#23201D" stroke-width="7"/><line x1="486" y1="706" x2="866" y2="713" stroke="#23201D" stroke-width="4"/><line x1="486" y1="752" x2="866" y2="753" stroke="#23201D" stroke-width="2.2" stroke-opacity=".3"/><polygon points="559,764.3 889,763.8 889,873.1 559,887.9" fill="#23201D"/><polygon points="570,773.6 878,772.1 878,864.6 570,877.4" fill="#3E5C76"/><polygon points="586,848.3 864,839.5 864,849.8 586,859.7" fill="#FBF6EF" fill-opacity=".45"/><polygon points="600,822.3 622,821.8 622,847.1 600,847.8" fill="#F0B429" fill-opacity=".85"/><polygon points="630,828.7 645,828.3 645,846.4 630,846.9" fill="#FBF6EF" fill-opacity=".5"/><polygon points="654,814.2 680,813.7 680,845.3 654,846.1" fill="#FBF6EF" fill-opacity=".5"/><polygon points="698,824.2 715,823.8 715,844.2 698,844.7" fill="#F0B429" fill-opacity=".85"/><polygon points="724,818.2 746,817.7 746,843.2 724,843.9" fill="#FBF6EF" fill-opacity=".5"/><polygon points="762,826.7 777,826.3 777,842.3 762,842.7" fill="#FBF6EF" fill-opacity=".5"/><polygon points="790,813.5 815,812.9 815,841.1 790,841.9" fill="#F0B429" fill-opacity=".85"/><polygon points="826,822.5 844,822 844,840.2 826,840.7" fill="#FBF6EF" fill-opacity=".5"/><circle cx="724" cy="797.2" r="15" fill="#F0B429" fill-opacity=".9"/><circle cx="724" cy="797.2" r="27" fill="#F0B429" fill-opacity=".26"/><line x1="724" y1="774.2" x2="724" y2="791.8" stroke="#FBF6EF" stroke-width="2" stroke-opacity=".45"/><g stroke="#23201D"><line x1="673" y1="773.1" x2="673" y2="873.1" stroke-width="5"/><line x1="776" y1="772.6" x2="776" y2="868.9" stroke-width="5"/><line x1="570" y1="799.4" x2="878" y2="795.1" stroke-width="4"/></g><polygon points="598,773.5 652,773.2 588,876.7 570,877.4" fill="#FBF6EF" fill-opacity=".16"/><polygon points="676,773.1 702,772.9 642,874.4 622,875.3" fill="#FBF6EF" fill-opacity=".1"/><polygon points="570,773.6 878,772.1 878,864.6 570,877.4" fill="url(#ha)"/><polygon points="570,773.6 878,772.1 878,864.6 570,877.4" fill="none" stroke="#23201D" stroke-width="3" stroke-linejoin="round"/><polygon points="553,878.1 895,863.9 895,881 553,897.6" fill="#FBF6EF"/><line x1="553" y1="897.6" x2="895" y2="881" stroke="#23201D" stroke-width="3"/><polygon points="565,897 884,881.6 884,937.6 565,960.1" fill="#3E5C76" fill-opacity=".28"/><polygon points="577,908.6 707,901.7 707,937.1 577,945.7" fill="#3E5C76" fill-opacity=".26"/><polygon points="577,908.6 707,901.7 707,937.1 577,945.7" fill="none" stroke="#FBF6EF" stroke-width="2.2" stroke-linejoin="round"/><polygon points="727,900.7 872,893 872,926.3 727,935.8" fill="#3E5C76" fill-opacity=".26"/><polygon points="727,900.7 872,893 872,926.3 727,935.8" fill="none" stroke="#FBF6EF" stroke-width="2.2" stroke-linejoin="round"/><polygon points="189,572.4 383,583.7 383,973 189,986.7" fill="#23201D"/><polygon points="198,581.8 374,591.6 374,619.2 198,611" fill="#F0B429" fill-opacity=".7"/><line x1="286" y1="586.7" x2="286" y2="615.1" stroke="#23201D" stroke-width="3.4"/><polygon points="198,619.1 374,626.8 374,969.8 198,982" fill="#3E5C76"/><polygon points="198,619.1 226,620.3 226,980 198,982" fill="#23201D" fill-opacity=".2"/><polygon points="213,633.5 359,639.2 359,743.9 213,743.1" fill="#F0B429" fill-opacity=".85"/><g stroke="#FBF6EF"><polygon points="213,633.5 359,639.2 359,743.9 213,743.1" fill="none" stroke="#FBF6EF" stroke-width="3" stroke-linejoin="round"/><line x1="286" y1="636.3" x2="286" y2="743.5" stroke-width="3"/><line x1="213" y1="688.3" x2="359" y2="691.5" stroke-width="3"/></g><polygon points="216,766.5 356,766.2 356,855.5 216,859.9" fill="#23201D" fill-opacity=".24"/><polygon points="216,766.5 356,766.2 356,855.5 216,859.9" fill="none" stroke="#FBF6EF" stroke-width="2.4" stroke-linejoin="round"/><polygon points="216,876 356,870.9 356,947.9 216,956.6" fill="#23201D" fill-opacity=".24"/><polygon points="216,876 356,870.9 356,947.9 216,956.6" fill="none" stroke="#FBF6EF" stroke-width="2.4" stroke-linejoin="round"/><line x1="344" y1="752.3" x2="344" y2="777.8" stroke="#FBF6EF" stroke-width="6"/><circle cx="344" cy="783.2" r="6.5" fill="#F0B429"/><polygon points="187,984.8 385,970.8 397,998 175,1017.6" fill="#FBF6EF"/><polygon points="175,1017.6 397,998 399,1008.8 173,1029.8" fill="#23201D" fill-opacity=".72"/><polygon points="196,992.2 376,977.5 428,1080 146,1080" fill="#F0B429" fill-opacity=".15"/><polygon points="160.8,374.9 683.2,439.9 683.2,569.8 160.8,529.9" fill="#3E5C76" fill-opacity=".2"/><g fill="#23201D" fill-opacity=".5"><polygon points="214,344.2 230,346.2 230,534.7 214,533.6"/><polygon points="648,400.7 664,402.8 664,565.4 648,564.3"/></g><polygon points="175.8,357.9 698.2,422.9 698.2,552.8 175.8,512.9" fill="#3E5C76"/><polygon points="175.8,357.9 698.2,422.9 698.2,430.9 175.8,365.9" fill="#FBF6EF" fill-opacity=".28"/><polygon points="175.8,357.9 698.2,422.9 698.2,552.8 175.8,512.9" fill="none" stroke="#23201D" stroke-width="3.5" stroke-linejoin="round"/><polygon points="190,378.4 684,437 684,535.9 190,495.3" fill="none" stroke="#FBF6EF" stroke-width="3.2" stroke-linejoin="round"/><polygon points="249,393.7 301,508.2 197,499.6" fill="#F0B429" fill-opacity=".24"/><polygon points="243,388.7 295,503.2 191,494.6" fill="#FBF6EF"/><circle cx="243" cy="463.7" r="21" fill="#F0B429"/><circle cx="243" cy="463.7" r="21" fill="none" stroke="#3E5C76" stroke-width="2.6"/><text x="512" y="465.5" transform="rotate(5.8 512 465.5)" text-anchor="middle" font-family="Georgia, serif" font-size="41" letter-spacing="3" fill="#FBF6EF">NORTH &amp; PINE</text><text x="512" y="507.9" transform="rotate(5.8 512 507.9)" text-anchor="middle" font-family="Helvetica, Arial, sans-serif" font-size="16" letter-spacing="6" fill="#F0B429" fill-opacity=".92">GENERAL GOODS</text><g stroke="#F0B429" stroke-width="2" stroke-opacity=".65" stroke-linecap="round"><line x1="352" y1="490.1" x2="400" y2="494.4"/><line x1="622" y1="514" x2="670" y2="518.2"/></g><g fill="#FBF6EF" fill-opacity=".8"><circle cx="222" cy="375.8" r="4.6"/><circle cx="222" cy="504.4" r="4.6"/><circle cx="640" cy="426.2" r="4.6"/><circle cx="640" cy="537.9" r="4.6"/></g><ellipse cx="124" cy="995.7" rx="74" ry="13" fill="#3E5C76" fill-opacity=".17"/><g stroke="#6E8B6A" stroke-width="3.4" stroke-linecap="round"><line x1="122" y1="919.7" x2="70" y2="873.7"/><line x1="122" y1="919.7" x2="164" y2="875.7"/><line x1="122" y1="919.7" x2="86" y2="831.7"/><line x1="122" y1="919.7" x2="150" y2="833.7"/><line x1="122" y1="919.7" x2="114" y2="803.7"/><line x1="122" y1="919.7" x2="58" y2="903.7"/><line x1="122" y1="919.7" x2="176" y2="905.7"/><line x1="122" y1="919.7" x2="132" y2="853.7"/></g><g transform="rotate(-32 70 873.7)"><path d="M44 873.7 q26-20 52 0 q-26 20-52 0 z" fill="#6E8B6A"/><path d="M50 872.7 q18-9 34-2" fill="none" stroke="#FBF6EF" stroke-opacity=".3" stroke-width="2.4"/></g><g transform="rotate(30 164 875.7)"><path d="M138 875.7 q26-20 52 0 q-26 20-52 0 z" fill="#6E8B6A"/><path d="M144 874.7 q18-9 34-2" fill="none" stroke="#FBF6EF" stroke-opacity=".3" stroke-width="2.4"/></g><g transform="rotate(-56 86 831.7)"><path d="M60 831.7 q26-20 52 0 q-26 20-52 0 z" fill="#6E8B6A"/><path d="M66 830.7 q18-9 34-2" fill="none" stroke="#FBF6EF" stroke-opacity=".3" stroke-width="2.4"/></g><g transform="rotate(54 150 833.7)"><path d="M124 833.7 q26-20 52 0 q-26 20-52 0 z" fill="#6E8B6A"/><path d="M130 832.7 q18-9 34-2" fill="none" stroke="#FBF6EF" stroke-opacity=".3" stroke-width="2.4"/></g><g transform="rotate(-6 114 803.7)"><path d="M88 803.7 q26-20 52 0 q-26 20-52 0 z" fill="#6E8B6A"/><path d="M94 802.7 q18-9 34-2" fill="none" stroke="#FBF6EF" stroke-opacity=".3" stroke-width="2.4"/></g><g transform="rotate(-14 58 903.7)"><path d="M32 903.7 q26-20 52 0 q-26 20-52 0 z" fill="#6E8B6A"/><path d="M38 902.7 q18-9 34-2" fill="none" stroke="#FBF6EF" stroke-opacity=".3" stroke-width="2.4"/></g><g transform="rotate(16 176 905.7)"><path d="M150 905.7 q26-20 52 0 q-26 20-52 0 z" fill="#6E8B6A"/><path d="M156 904.7 q18-9 34-2" fill="none" stroke="#FBF6EF" stroke-opacity=".3" stroke-width="2.4"/></g><g transform="rotate(38 132 853.7)"><path d="M106 853.7 q26-20 52 0 q-26 20-52 0 z" fill="#6E8B6A"/><path d="M112 852.7 q18-9 34-2" fill="none" stroke="#FBF6EF" stroke-opacity=".3" stroke-width="2.4"/></g><polygon points="74,927.7 162,927.7 152,991.7 84,991.7" fill="#E4753A"/><polygon points="74,927.7 162,927.7 159,942.7 77,942.7" fill="#E4753A"/><polygon points="74,927.7 162,927.7 159,942.7 77,942.7" fill="#23201D" fill-opacity=".16"/><polygon points="74,927.7 162,927.7 152,991.7 84,991.7" fill="none" stroke="#23201D" stroke-width="3" stroke-linejoin="round"/><polygon points="560,960.5 896,936.7 944,977.4 592,1010.2" fill="#3E5C76" fill-opacity=".12"/></g><rect x="0" y="0" width="1080" height="1080" fill="url(#gr)"/></svg>